<svg xmlns="http://www.w3.org/2000/svg" xmlns:xlink="http://www.w3.org/1999/xlink" style="width:0;height:0;visibility:hidden;">
   <defs/>
   <symbol id="rd-icon-spotter" viewBox="0 0 36 36">
       <path
        fillRule="evenodd"
        clipRule="evenodd"
        d="M98.2929 33.8665C100.121 36.3109 101.528 38.9477 102.38 42.2435L102.391 42.232C103.305 40.3481 103.626 38.7242 103.632 36.9896C103.645 35.3496 103.677 33.7099 103.71 32.0701L103.71 32.0682C103.755 29.7717 103.8 27.4751 103.792 25.1776C103.775 21.3564 102.054 18.5621 98.4581 17.5538C96.0327 16.8713 93.5595 16.3792 91.0848 15.8868C90.0399 15.6789 88.9947 15.471 87.9528 15.2486C87.4687 15.1446 86.9778 15.0554 86.4862 14.9661L86.4862 14.9661C84.3992 14.5868 82.2997 14.2053 80.6566 12.6795C80.2101 12.2661 79.7689 11.8434 79.3272 11.4203L79.3271 11.4203L79.3271 11.4202C78.2901 10.4268 77.2511 9.43144 76.1378 8.55014C69.7878 3.52344 62.5511 0.779491 54.601 0.110175C51.2535 -0.167326 47.9197 0.106276 44.5802 0.71969C36.936 2.11825 30.3556 5.63225 24.6619 11.0127C23.5348 12.0725 22.2967 12.9899 20.7745 13.2815C18.154 13.7767 15.5305 14.2504 12.9054 14.7244L12.9052 14.7244C10.785 15.1072 8.66374 15.4902 6.54232 15.8849C2.9189 16.5523 0.510135 19.1148 0.332462 23.0501C0.195242 26.1842 0.165716 29.3201 0.136191 32.4559C0.122904 33.8671 0.109617 35.2782 0.086517 36.6892C0.0661819 37.9312 0.4893 39.0634 0.946382 40.196C1.19795 40.0478 1.31385 39.8856 1.39712 39.6408C3.55738 33.5814 7.36787 29.0961 13.1086 26.377C17.6394 24.236 22.2906 23.7378 27.1404 24.9424C32.2383 26.2097 36.3015 29.1126 39.517 33.3027C41.8899 36.389 43.269 39.9982 43.9529 43.8772C43.9616 43.925 43.9692 43.9713 43.9765 44.0158C44.0392 44.3983 44.0809 44.6529 44.6082 44.6615L58.8732 44.8951C59.2355 44.901 59.4072 44.7866 59.4709 44.354C60.4089 38.2511 63.342 33.3998 68.1246 29.7157C71.5995 27.0534 75.5192 25.5821 79.8047 25.2889C83.2738 25.0527 86.6386 25.6587 89.8306 27.1291C93.1687 28.6723 96.0325 30.829 98.2929 33.8665ZM22.2635 31.6255C31.473 31.4598 37.2909 39.2439 37.0127 47.2447C36.6865 56.7918 30.0017 62.5311 21.7131 62.4774C13.6736 62.4279 6.5309 55.3253 7.19978 45.5963C7.67621 38.6302 13.9956 30.9979 22.2524 31.6136L22.2635 31.6255ZM34.6975 46.1212C34.6396 49.6553 31.7277 52.4734 28.1936 52.4155C24.6594 52.3577 21.8413 49.4458 21.8992 45.9116C21.9571 42.3775 24.8689 39.5594 28.4031 39.6172C31.9372 39.6751 34.7553 42.587 34.6975 46.1212ZM77.9544 63.1221C86.0554 64.985 94.0403 59.6015 95.7631 51.042C97.7374 42.6073 92.2954 35.1008 85.7626 33.2091C75.7646 30.2996 68.1584 36.9606 66.6052 44.8253C64.8199 53.7909 69.5456 61.1823 77.9544 63.1221ZM85.7859 53.3584C89.32 53.4163 92.2319 50.5982 92.2898 47.064C92.3476 43.5299 89.5295 40.618 85.9954 40.5601C82.4612 40.5023 79.5493 43.3204 79.4915 46.8545C79.4336 50.3887 82.2517 53.3006 85.7859 53.3584ZM63.0576 75.1152C66.2193 71.9758 68.0044 67.7089 68.0201 63.2533L63.2101 63.2363C63.1989 66.4162 61.9249 69.4614 59.6684 71.702C57.4119 73.9426 54.3578 75.195 51.1778 75.1838C47.9979 75.1725 44.9527 73.8985 42.7121 71.642C40.4715 69.3855 39.2191 66.3314 39.2303 63.1515L34.4203 63.1345C34.4046 67.5901 36.1595 71.8695 39.2989 75.0312C42.4384 78.1929 46.7052 79.978 51.1608 79.9938C55.6164 80.0095 59.8958 78.2547
        fill="#0033FF"
      />
   </symbol>
</svg>

